<mxfile host="Electron" agent="Mozilla/5.0 (Macintosh; Intel Mac OS X 10_15_7) AppleWebKit/537.36 (KHTML, like Gecko) draw.io/27.0.9 Chrome/134.0.6998.205 Electron/35.4.0 Safari/537.36" version="27.0.9" pages="2">
  <diagram name="HLD" id="ttDJFqqFcoFR2nL8kNPs">
    <mxGraphModel dx="976" dy="751" grid="1" gridSize="10" guides="1" tooltips="1" connect="1" arrows="1" fold="1" page="1" pageScale="1" pageWidth="827" pageHeight="1169" math="0" shadow="0">
      <root>
        <mxCell id="0" />
        <mxCell id="1" parent="0" />
        <mxCell id="3VN7QrqqQd_PNtmZmsZN-1" value="UI-For input data&lt;br&gt;(React)" style="whiteSpace=wrap;html=1;aspect=fixed;" parent="1" vertex="1">
          <mxGeometry x="90" y="60" width="80" height="80" as="geometry" />
        </mxCell>
        <mxCell id="3VN7QrqqQd_PNtmZmsZN-2" value="" style="endArrow=classic;html=1;rounded=0;" parent="1" edge="1">
          <mxGeometry width="50" height="50" relative="1" as="geometry">
            <mxPoint x="170" y="100" as="sourcePoint" />
            <mxPoint x="240" y="100" as="targetPoint" />
          </mxGeometry>
        </mxCell>
        <mxCell id="3VN7QrqqQd_PNtmZmsZN-3" value="API wrapper&lt;div&gt;(FASTAPI)&lt;/div&gt;" style="whiteSpace=wrap;html=1;aspect=fixed;" parent="1" vertex="1">
          <mxGeometry x="240" y="60" width="80" height="80" as="geometry" />
        </mxCell>
        <mxCell id="3VN7QrqqQd_PNtmZmsZN-5" value="" style="endArrow=classic;html=1;rounded=0;exitX=1;exitY=0.5;exitDx=0;exitDy=0;" parent="1" source="3VN7QrqqQd_PNtmZmsZN-3" target="3VN7QrqqQd_PNtmZmsZN-6" edge="1">
          <mxGeometry width="50" height="50" relative="1" as="geometry">
            <mxPoint x="390" y="400" as="sourcePoint" />
            <mxPoint x="410" y="100" as="targetPoint" />
          </mxGeometry>
        </mxCell>
        <mxCell id="3VN7QrqqQd_PNtmZmsZN-6" value="Agents orchestration&lt;div&gt;(LANGGRAPH)&lt;/div&gt;" style="whiteSpace=wrap;html=1;aspect=fixed;" parent="1" vertex="1">
          <mxGeometry x="368.5" y="55" width="90" height="90" as="geometry" />
        </mxCell>
        <mxCell id="3VN7QrqqQd_PNtmZmsZN-7" value="" style="endArrow=classic;html=1;rounded=0;entryX=0.5;entryY=0;entryDx=0;entryDy=0;" parent="1" target="3VN7QrqqQd_PNtmZmsZN-8" edge="1">
          <mxGeometry width="50" height="50" relative="1" as="geometry">
            <mxPoint x="409" y="150" as="sourcePoint" />
            <mxPoint x="510" y="100" as="targetPoint" />
            <Array as="points" />
          </mxGeometry>
        </mxCell>
        <mxCell id="3VN7QrqqQd_PNtmZmsZN-8" value="Tools&lt;div&gt;(MCP, RAG)&lt;/div&gt;" style="whiteSpace=wrap;html=1;aspect=fixed;" parent="1" vertex="1">
          <mxGeometry x="368.5" y="220" width="80" height="80" as="geometry" />
        </mxCell>
        <mxCell id="3VN7QrqqQd_PNtmZmsZN-9" value="" style="endArrow=classic;html=1;rounded=0;exitX=1;exitY=0.5;exitDx=0;exitDy=0;" parent="1" source="3VN7QrqqQd_PNtmZmsZN-6" edge="1">
          <mxGeometry width="50" height="50" relative="1" as="geometry">
            <mxPoint x="590" y="105" as="sourcePoint" />
            <mxPoint x="560" y="100" as="targetPoint" />
          </mxGeometry>
        </mxCell>
        <mxCell id="3VN7QrqqQd_PNtmZmsZN-11" value="Output&lt;div&gt;(PDF)&lt;/div&gt;" style="whiteSpace=wrap;html=1;aspect=fixed;" parent="1" vertex="1">
          <mxGeometry x="560" y="65" width="80" height="80" as="geometry" />
        </mxCell>
      </root>
    </mxGraphModel>
  </diagram>
  <diagram id="HENDgW5nFe9i1qZI1Ltb" name="Agnetic AI flow">
    <mxGraphModel dx="1027" dy="791" grid="1" gridSize="10" guides="1" tooltips="1" connect="1" arrows="1" fold="1" page="1" pageScale="1" pageWidth="827" pageHeight="1169" math="0" shadow="0">
      <root>
        <mxCell id="0" />
        <mxCell id="1" parent="0" />
        <mxCell id="ep2F-Kuv4KCRfVvgyv6r-3" value="__START__" style="rounded=1;whiteSpace=wrap;html=1;" parent="1" vertex="1">
          <mxGeometry x="294" y="40" width="120" height="60" as="geometry" />
        </mxCell>
        <mxCell id="ep2F-Kuv4KCRfVvgyv6r-4" value="" style="endArrow=classic;html=1;rounded=0;exitX=0.446;exitY=0.992;exitDx=0;exitDy=0;exitPerimeter=0;" parent="1" source="ep2F-Kuv4KCRfVvgyv6r-3" edge="1">
          <mxGeometry width="50" height="50" relative="1" as="geometry">
            <mxPoint x="350" y="190" as="sourcePoint" />
            <mxPoint x="348" y="160" as="targetPoint" />
          </mxGeometry>
        </mxCell>
        <mxCell id="ep2F-Kuv4KCRfVvgyv6r-5" value="Data Parser Agent" style="rounded=0;whiteSpace=wrap;html=1;" parent="1" vertex="1">
          <mxGeometry x="294" y="160" width="120" height="60" as="geometry" />
        </mxCell>
        <mxCell id="ep2F-Kuv4KCRfVvgyv6r-6" value="" style="endArrow=classic;html=1;rounded=0;" parent="1" edge="1">
          <mxGeometry width="50" height="50" relative="1" as="geometry">
            <mxPoint x="350" y="220" as="sourcePoint" />
            <mxPoint x="350" y="290" as="targetPoint" />
          </mxGeometry>
        </mxCell>
        <mxCell id="ep2F-Kuv4KCRfVvgyv6r-8" value="Category Classifier&lt;br&gt;Agent" style="rounded=0;whiteSpace=wrap;html=1;" parent="1" vertex="1">
          <mxGeometry x="290" y="290" width="120" height="60" as="geometry" />
        </mxCell>
        <mxCell id="ep2F-Kuv4KCRfVvgyv6r-9" value="Validator Agent&lt;br&gt;(reason validation and options)" style="rounded=0;whiteSpace=wrap;html=1;" parent="1" vertex="1">
          <mxGeometry x="490" y="290" width="120" height="60" as="geometry" />
        </mxCell>
        <mxCell id="ep2F-Kuv4KCRfVvgyv6r-11" value="" style="endArrow=classic;html=1;rounded=0;exitX=1;exitY=0.5;exitDx=0;exitDy=0;" parent="1" source="ep2F-Kuv4KCRfVvgyv6r-8" edge="1">
          <mxGeometry width="50" height="50" relative="1" as="geometry">
            <mxPoint x="490" y="300" as="sourcePoint" />
            <mxPoint x="490" y="320" as="targetPoint" />
          </mxGeometry>
        </mxCell>
        <mxCell id="ep2F-Kuv4KCRfVvgyv6r-12" value="" style="endArrow=classic;html=1;rounded=0;" parent="1" edge="1">
          <mxGeometry width="50" height="50" relative="1" as="geometry">
            <mxPoint x="550" y="350" as="sourcePoint" />
            <mxPoint x="550" y="410" as="targetPoint" />
          </mxGeometry>
        </mxCell>
        <mxCell id="ep2F-Kuv4KCRfVvgyv6r-13" value="Analyzer Agent&lt;br&gt;(DB and search results)" style="rounded=0;whiteSpace=wrap;html=1;" parent="1" vertex="1">
          <mxGeometry x="490" y="410" width="120" height="60" as="geometry" />
        </mxCell>
        <mxCell id="ep2F-Kuv4KCRfVvgyv6r-14" value="" style="endArrow=classic;html=1;rounded=0;" parent="1" edge="1">
          <mxGeometry width="50" height="50" relative="1" as="geometry">
            <mxPoint x="490" y="439.5" as="sourcePoint" />
            <mxPoint x="420" y="439.5" as="targetPoint" />
          </mxGeometry>
        </mxCell>
        <mxCell id="ep2F-Kuv4KCRfVvgyv6r-16" value="Search tool&lt;div&gt;(Competetive pricing, market price)&lt;/div&gt;" style="rounded=1;whiteSpace=wrap;html=1;" parent="1" vertex="1">
          <mxGeometry x="600" y="170" width="120" height="60" as="geometry" />
        </mxCell>
        <mxCell id="ep2F-Kuv4KCRfVvgyv6r-17" value="" style="endArrow=classic;startArrow=classic;html=1;rounded=0;exitX=0.75;exitY=0;exitDx=0;exitDy=0;" parent="1" source="ep2F-Kuv4KCRfVvgyv6r-9" edge="1">
          <mxGeometry width="50" height="50" relative="1" as="geometry">
            <mxPoint x="590" y="280" as="sourcePoint" />
            <mxPoint x="640" y="230" as="targetPoint" />
          </mxGeometry>
        </mxCell>
        <mxCell id="ep2F-Kuv4KCRfVvgyv6r-18" value="" style="endArrow=classic;startArrow=classic;html=1;rounded=0;entryX=0.5;entryY=1;entryDx=0;entryDy=0;" parent="1" target="ep2F-Kuv4KCRfVvgyv6r-19" edge="1">
          <mxGeometry width="50" height="50" relative="1" as="geometry">
            <mxPoint x="520" y="290" as="sourcePoint" />
            <mxPoint x="520" y="210" as="targetPoint" />
          </mxGeometry>
        </mxCell>
        <mxCell id="ep2F-Kuv4KCRfVvgyv6r-19" value="Db retrieval(RAG)&lt;br&gt;(past data)&amp;nbsp;" style="rounded=1;whiteSpace=wrap;html=1;" parent="1" vertex="1">
          <mxGeometry x="460" y="100" width="120" height="60" as="geometry" />
        </mxCell>
        <mxCell id="ep2F-Kuv4KCRfVvgyv6r-20" value="Output Generator&lt;br&gt;(Final Steategy, PDF)" style="rounded=0;whiteSpace=wrap;html=1;" parent="1" vertex="1">
          <mxGeometry x="294" y="420" width="120" height="60" as="geometry" />
        </mxCell>
        <mxCell id="ep2F-Kuv4KCRfVvgyv6r-21" value="" style="endArrow=classic;html=1;rounded=0;exitX=0.5;exitY=1;exitDx=0;exitDy=0;" parent="1" source="ep2F-Kuv4KCRfVvgyv6r-20" edge="1">
          <mxGeometry width="50" height="50" relative="1" as="geometry">
            <mxPoint x="330" y="510" as="sourcePoint" />
            <mxPoint x="354" y="550" as="targetPoint" />
          </mxGeometry>
        </mxCell>
        <mxCell id="ep2F-Kuv4KCRfVvgyv6r-22" value="__END__" style="rounded=1;whiteSpace=wrap;html=1;" parent="1" vertex="1">
          <mxGeometry x="294" y="555" width="120" height="60" as="geometry" />
        </mxCell>
      </root>
    </mxGraphModel>
  </diagram>
</mxfile>
